<svg width="20" height="20" viewBox="0 0 20 20" fill="none" xmlns="http://www.w3.org/2000/svg">
<g clip-path="url(#clip0_322_1025)">
<path d="M10 0C4.47667 0 0 4.47667 0 10C0 15.5233 4.47667 20 10 20C15.5233 20 20 15.5233 20 10C20 4.47667 15.5233 0 10 0ZM6.14083 3.64833C6.57833 3.64833 6.93 4.0075 6.93 4.4375C6.93 4.8675 6.57833 5.22667 6.14083 5.22667C5.93174 5.22601 5.73139 5.14265 5.58354 4.9948C5.43568 4.84694 5.35233 4.6466 5.35167 4.4375C5.35167 4 5.70333 3.64833 6.14083 3.64833ZM5.53917 6.18H6.7425V14.5475H5.53917V6.18ZM8.5075 6.18H11.7575C14.8508 6.18 16.2108 8.39083 16.2108 10.3675C16.2108 12.5158 14.5308 14.555 11.7733 14.555H8.5075V6.18ZM9.71083 7.26583V13.4692H11.625C14.3517 13.4692 14.9767 11.3992 14.9767 10.3675C14.9767 8.6875 13.9067 7.26583 11.5625 7.26583H9.71083Z" fill="#A6CE39"/>
</g>
<defs>
<clipPath id="clip0_322_1025">
<rect width="20" height="20" fill="white"/>
</clipPath>
</defs>
</svg>
