<svg width="16" height="16" viewBox="0 0 16 16" fill="none" xmlns="http://www.w3.org/2000/svg">
<path d="M14.9333 0H1.06667C0.477333 0 0 0.477333 0 1.06667V14.9333C0 15.5227 0.477333 16 1.06667 16H14.9333C15.5227 16 16 15.5227 16 14.9333V1.06667C16 0.477333 15.5227 0 14.9333 0Z" fill="#427687"/>
<path d="M14.0933 0H1C0.73538 0.00191953 0.482139 0.107893 0.295018 0.295015C0.107896 0.482136 0.00192251 0.735377 2.97732e-06 1V14.0533C-0.00133036 14.6053 0.445336 15.052 0.997336 15.0533H14.08C14.632 15.0547 15.0787 14.608 15.08 14.056V1C15.092 0.46 14.6627 0.012 14.1227 0H14.0933Z" fill="#8CAFBF"/>
<path d="M8.43987 14H6.8532C6.76869 13.9988 6.68796 13.9647 6.62819 13.905C6.56842 13.8452 6.53434 13.7645 6.5332 13.68V6.10662C6.53434 6.02211 6.56842 5.94137 6.62819 5.88161C6.68796 5.82184 6.76869 5.78776 6.8532 5.78662H8.42654C8.60254 5.78929 8.74387 5.93062 8.74654 6.10662V13.68C8.75054 13.8533 8.6132 13.996 8.43987 14Z" fill="white"/>
<path d="M7.64005 4.85333C8.42797 4.85333 9.06671 4.21459 9.06671 3.42667C9.06671 2.63874 8.42797 2 7.64005 2C6.85212 2 6.21338 2.63874 6.21338 3.42667C6.21338 4.21459 6.85212 4.85333 7.64005 4.85333Z" fill="white"/>
<path opacity="0.5" d="M4.76008 1.18662C4.76008 0.879951 4.54674 0.786618 3.32008 0.826618C2.29341 0.866618 1.78674 0.986618 1.48008 1.35995C1.17341 1.73328 1.09341 2.49328 1.08008 3.39995C1.08008 4.03995 1.08008 4.63995 1.41341 4.63995C1.86674 4.63995 1.86674 3.58662 2.24008 2.99995C2.96008 1.83995 4.76008 1.58662 4.76008 1.18662Z" fill="#B4E1ED"/>
</svg>
