<svg width="20" height="20" viewBox="0 0 20 20" fill="none" xmlns="http://www.w3.org/2000/svg">
<g clip-path="url(#clip0_203_99)">
<path d="M18.1968 0.618652H1.94678C1.25615 0.618652 0.696777 1.17803 0.696777 1.86865V18.1187C0.696777 18.8093 1.25615 19.3687 1.94678 19.3687H18.1968C18.8874 19.3687 19.4468 18.8093 19.4468 18.1187V1.86865C19.4468 1.17803 18.8874 0.618652 18.1968 0.618652Z" fill="#427687"/>
<path d="M17.2124 0.618652H1.86866C1.55855 0.620902 1.26178 0.745089 1.0425 0.964373C0.823218 1.18366 0.69903 1.48042 0.696781 1.79053V17.0874C0.695218 17.7343 1.21866 18.2577 1.86553 18.2593H17.1968C17.8437 18.2608 18.3671 17.7374 18.3687 17.0905V1.79053C18.3827 1.15771 17.8796 0.632715 17.2468 0.618652H17.2124Z" fill="#8CAFBF"/>
<path d="M10.5874 17.0249H8.72803C8.62899 17.0236 8.53438 16.9836 8.46434 16.9136C8.3943 16.8436 8.35436 16.7489 8.35303 16.6499V7.7749C8.35436 7.67586 8.3943 7.58125 8.46434 7.51121C8.53438 7.44117 8.62899 7.40124 8.72803 7.3999H10.5718C10.778 7.40303 10.9437 7.56865 10.9468 7.7749V16.6499C10.9515 16.853 10.7905 17.0202 10.5874 17.0249Z" fill="white"/>
<path d="M9.6499 6.30615C10.5733 6.30615 11.3218 5.55763 11.3218 4.63428C11.3218 3.71093 10.5733 2.9624 9.6499 2.9624C8.72655 2.9624 7.97803 3.71093 7.97803 4.63428C7.97803 5.55763 8.72655 6.30615 9.6499 6.30615Z" fill="white"/>
<path opacity="0.5" d="M6.2749 2.00927C6.2749 1.6499 6.0249 1.54052 4.5874 1.5874C3.38428 1.63427 2.79053 1.7749 2.43115 2.2124C2.07178 2.6499 1.97803 3.54052 1.9624 4.60302C1.9624 5.35302 1.9624 6.05615 2.35303 6.05615C2.88428 6.05615 2.88428 4.82177 3.32178 4.13427C4.16553 2.7749 6.2749 2.47802 6.2749 2.00927Z" fill="#B4E1ED"/>
</g>
<defs>
<clipPath id="clip0_203_99">
<rect width="20" height="20" fill="white"/>
</clipPath>
</defs>
</svg>
