<?xml version="1.0" encoding="utf-8"?>
<!-- Generator: Adobe Illustrator 28.3.0, SVG Export Plug-In . SVG Version: 6.00 Build 0)  -->
<svg version="1.1" id="infoIcon" xmlns="http://www.w3.org/2000/svg" xmlns:xlink="http://www.w3.org/1999/xlink" x="0px" y="0px"
	 viewBox="0 0 20 20" style="enable-background:new 0 0 20 20;" xml:space="preserve">
<g>
	<path d="M10,20C4.5,20,0,15.5,0,10S4.5,0,10,0s10,4.5,10,10S15.5,20,10,20z M10,1.4c-4.7,0-8.6,3.8-8.6,8.6s3.8,8.6,8.6,8.6
		s8.6-3.8,8.6-8.6S14.7,1.4,10,1.4z"/>
</g>
<g>
	<path d="M11.4,6.9c0.9,0,1.6-0.7,1.6-1.6s-0.7-1.6-1.6-1.6c-0.9,0-1.6,0.7-1.6,1.6S10.6,6.9,11.4,6.9z"/>
</g>
<g>
	<path d="M13,13.2c0,0-0.1,0-0.1-0.1c-0.1,0-0.1,0-0.2,0c-0.1,0-0.1,0-0.1,0.1c0,0-0.1,0.1-0.1,0.1c-0.4,0.6-0.8,1.1-1.4,1.5
		c-0.1,0.1-0.6,0.5-0.8,0.4c-0.1,0-0.1-0.3,0-0.4l0.2-0.6c0.1-0.2,1.6-4.7,1.7-5.2c0.2-0.7,0.1-1.5-1-1.3c-0.3,0-3.3,0.4-3.4,0.4
		c-0.1,0-0.1,0-0.1,0c0,0-0.1,0.1-0.1,0.1c0,0-0.1,0.1-0.1,0.1c0,0,0,0.1,0,0.2c0,0.1,0,0.1,0,0.1c0,0,0.1,0.1,0.1,0.1
		c0,0,0.1,0.1,0.1,0.1c0,0,0.1,0,0.2,0c0,0,1.2-0.2,1.3-0.2c0.1,0,0.1,0,0.2,0c0.1,0,0.1,0.1,0.1,0.1c0.1,0.2,0.1,0.5,0,0.7
		c-0.1,0.4-1.7,4.9-1.8,5.2c-0.1,0.2,0,0.4,0,0.7c0.1,0.2,0.2,0.4,0.4,0.5c0.4,0.2,0.8,0.3,1.2,0.3c0.4,0,0.8-0.1,1.2-0.2
		c1-0.4,2-1.4,2.5-2.2c0-0.1,0.1-0.2,0-0.3C13.2,13.3,13.1,13.3,13,13.2z"/>
</g>
</svg>
