<?xml version="1.0" encoding="utf-8"?>
<!-- Generator: Adobe Illustrator 28.3.0, SVG Export Plug-In . SVG Version: 6.00 Build 0)  -->
<svg version="1.1" id="Layer_1" xmlns="http://www.w3.org/2000/svg" xmlns:xlink="http://www.w3.org/1999/xlink" x="0px" y="0px"
	 viewBox="0 0 14 14" style="enable-background:new 0 0 14 14;" xml:space="preserve">
<style type="text/css">
	.st0{clip-path:url(#SVGID_00000124873396365009869650000004766948018086277034_);}
	.st1{fill:#A6CE39;}
</style>
<g>
	<defs>
		<rect id="SVGID_1_" width="14" height="14"/>
	</defs>
	<clipPath id="SVGID_00000145761417723970789670000014875536180485548210_">
		<use xlink:href="#SVGID_1_"  style="overflow:visible;"/>
	</clipPath>
	<g style="clip-path:url(#SVGID_00000145761417723970789670000014875536180485548210_);">
		<path class="st1" d="M7,0C3.1,0,0,3.1,0,7c0,3.9,3.1,7,7,7c3.9,0,7-3.1,7-7C14,3.1,10.9,0,7,0z M4.3,2.6c0.3,0,0.6,0.3,0.6,0.6
			S4.6,3.7,4.3,3.7C4.2,3.7,4,3.6,3.9,3.5C3.8,3.4,3.7,3.3,3.7,3.1C3.7,2.8,4,2.6,4.3,2.6z M3.9,4.3h0.8v5.9H3.9V4.3z M6,4.3h2.3
			c2.2,0,3.1,1.5,3.1,2.9c0,1.5-1.2,2.9-3.1,2.9H6V4.3z M6.8,5.1v4.3h1.3c1.9,0,2.3-1.4,2.3-2.2c0-1.2-0.7-2.2-2.4-2.2H6.8z"/>
	</g>
</g>
</svg>
